<svg width="18" height="14" viewBox="0 0 18 14" fill="none" xmlns="http://www.w3.org/2000/svg">
<path fill-rule="evenodd" clip-rule="evenodd" d="M10.165 6.99284L10.1634 6.60924C10.1513 5.08772 10.0666 3.73022 9.92061 2.86993C9.92061 2.85442 9.76134 2.00119 9.65988 1.71718C9.50061 1.30668 9.21262 0.958234 8.85153 0.73747C8.56244 0.579952 8.25917 0.5 7.94172 0.5C7.69218 0.51253 7.28064 0.648568 6.98692 0.762623L6.74283 0.863962C5.12612 1.55967 2.03561 3.83294 0.85199 5.22315L0.764728 5.32032L0.375268 5.77566C0.129817 6.12411 0 6.55012 0 7.00835C0 7.41885 0.115635 7.82936 0.346905 8.1611C0.41614 8.26858 0.527664 8.40646 0.626929 8.52296L1.006 8.95283C2.31046 10.3846 5.13485 12.393 6.59883 13.0585C6.59883 13.0728 7.50864 13.4845 7.94172 13.5H7.99954C8.66389 13.5 9.28461 13.0895 9.60207 12.426C9.68879 12.2446 9.77197 11.8893 9.83524 11.5773L9.94897 10.9881C10.0788 10.0406 10.165 8.58711 10.165 6.99284ZM16.4967 8.64489C17.3269 8.64489 18 7.90861 18 7.00049C18 6.09238 17.3269 5.3561 16.4967 5.3561L12.7975 5.71052C12.1462 5.71052 11.6183 6.28689 11.6183 7.00049C11.6183 7.7129 12.1462 8.29047 12.7975 8.29047L16.4967 8.64489Z" fill="white"/>
</svg>
