<?xml version="1.0" encoding="iso-8859-1"?>
<!-- Generator: Adobe Illustrator 19.0.0, SVG Export Plug-In . SVG Version: 6.00 Build 0)  -->
<svg version="1.1" id="Layer_1" xmlns="http://www.w3.org/2000/svg" xmlns:xlink="http://www.w3.org/1999/xlink" x="0px" y="0px"
	 viewBox="0 0 460 460" style="enable-background:new 0 0 460 460;" xml:space="preserve">
<g>
	<g>
		<path d="M230,0C102.879,0,0,102.869,0,230c0,127.121,102.869,230,230,230c127.12,0,230-102.868,230-230
			C460.001,102.88,357.132,0,230,0z M318.183,241.798h-0.002c0,8.375-6.79,15.165-15.165,15.165s-15.165-6.79-15.165-15.165v-97.015
			c0-31.898-25.952-57.85-57.85-57.85s-57.85,25.952-57.85,57.85v194.031c0,18.889,15.368,34.256,34.257,34.256
			c18.889,0,34.257-15.367,34.257-34.256V196.848c0-5.207-4.236-9.443-9.443-9.443c-5.207,0-9.443,4.236-9.443,9.443v96.202
			c0,8.375-6.79,15.165-15.165,15.165s-15.165-6.79-15.165-15.165v-96.202c0-21.931,17.842-39.773,39.773-39.773
			c21.931,0,39.773,17.842,39.773,39.773v141.965c0,35.613-28.973,64.586-64.586,64.586c-35.613,0-64.586-28.973-64.586-64.586
			V144.782c0-48.622,39.557-88.18,88.18-88.18s88.18,39.558,88.18,88.18V241.798z"/>
	</g>
</g>
<g>
</g>
<g>
</g>
<g>
</g>
<g>
</g>
<g>
</g>
<g>
</g>
<g>
</g>
<g>
</g>
<g>
</g>
<g>
</g>
<g>
</g>
<g>
</g>
<g>
</g>
<g>
</g>
<g>
</g>
</svg>
