<svg width="19" height="18" viewBox="0 0 19 18" fill="none" xmlns="http://www.w3.org/2000/svg">
<path fill-rule="evenodd" clip-rule="evenodd" d="M5.13046 15.6483C5.50352 15.6483 5.80673 15.9515 5.80673 16.3246C5.80673 16.6976 5.50352 17 5.13046 17C4.75741 17 4.45508 16.6976 4.45508 16.3246C4.45508 15.9515 4.75741 15.6483 5.13046 15.6483Z" stroke="white" stroke-width="1.5" stroke-linecap="round" stroke-linejoin="round"/>
<path fill-rule="evenodd" clip-rule="evenodd" d="M15.0778 15.6483C15.4508 15.6483 15.754 15.9515 15.754 16.3246C15.754 16.6976 15.4508 17 15.0778 17C14.7047 17 14.4015 16.6976 14.4015 16.3246C14.4015 15.9515 14.7047 15.6483 15.0778 15.6483Z" stroke="white" stroke-width="1.5" stroke-linecap="round" stroke-linejoin="round"/>
<path d="M1 1L2.83875 1.31824L3.69005 11.4605C3.759 12.2871 4.44942 12.9218 5.27862 12.9218H14.925C15.717 12.9218 16.3889 12.3401 16.5029 11.5551L17.3418 5.75775C17.4453 5.04259 16.891 4.40256 16.1688 4.40256H3.13401" stroke="white" stroke-width="1.5" stroke-linecap="round" stroke-linejoin="round"/>
<path d="M11.056 7.66991H13.5074" stroke="white" stroke-width="1.5" stroke-linecap="round" stroke-linejoin="round"/>
</svg>
