<?xml version="1.0" encoding="iso-8859-1"?>
<!-- Generator: Adobe Illustrator 19.0.0, SVG Export Plug-In . SVG Version: 6.00 Build 0)  -->
<svg version="1.1" id="Layer_1" xmlns="http://www.w3.org/2000/svg" xmlns:xlink="http://www.w3.org/1999/xlink" x="0px" y="0px"
	 viewBox="0 0 512 512" style="enable-background:new 0 0 512 512;" xml:space="preserve">
<g>
	<g>
		<path d="M256,0c-42.419,0-76.8,34.381-76.8,76.8c0,42.419,34.381,76.8,76.8,76.8c42.419,0,76.8-34.381,76.8-76.8
			C332.8,34.381,298.419,0,256,0z M256,128c-28.228,0-51.2-22.972-51.2-51.2s22.972-51.2,51.2-51.2s51.2,22.972,51.2,51.2
			S284.228,128,256,128z"/>
	</g>
</g>
<g>
	<g>
		<path d="M358.4,230.4v-25.6c0-14.14-11.46-25.6-25.6-25.6H179.2c-14.14,0-25.6,11.46-25.6,25.6v25.6c0,14.14,11.46,25.6,25.6,25.6
			v179.2c-14.14,0-25.6,11.46-25.6,25.6v25.6c0,14.14,11.46,25.6,25.6,25.6h153.6c14.14,0,25.6-11.46,25.6-25.6v-25.6
			c0-14.14-11.46-25.6-25.6-25.6V256C346.94,256,358.4,244.54,358.4,230.4z M332.8,460.8v25.6H179.2v-25.6h25.6V230.4h-25.6v-25.6
			h153.6v25.6h-25.6v230.4H332.8z"/>
	</g>
</g>
<g>
</g>
<g>
</g>
<g>
</g>
<g>
</g>
<g>
</g>
<g>
</g>
<g>
</g>
<g>
</g>
<g>
</g>
<g>
</g>
<g>
</g>
<g>
</g>
<g>
</g>
<g>
</g>
<g>
</g>
</svg>
