<svg width="111" height="104" viewBox="0 0 111 104" fill="none" xmlns="http://www.w3.org/2000/svg">
<path fill-rule="evenodd" clip-rule="evenodd" d="M62.1715 5.7146L73.2122 27.3149C74.2942 29.4354 76.3828 30.9058 78.8048 31.2461L103.503 34.7276C109.605 35.5904 112.034 42.833 107.617 46.983L89.7573 63.7893C88.0022 65.4419 87.2032 67.8177 87.6184 70.1508L91.8334 93.8777C92.8714 99.7472 86.4923 104.225 81.0381 101.448L58.9632 90.2382C56.7991 89.1384 54.2072 89.1384 52.0368 90.2382L29.9619 101.448C24.5076 104.225 18.1286 99.7472 19.1729 93.8777L23.3816 70.1508C23.7968 67.8177 22.9978 65.4419 21.2426 63.7893L3.38265 46.983C-1.0336 42.833 1.39471 35.5904 7.49693 34.7276L32.1952 31.2461C34.6172 30.9058 36.7121 29.4354 37.7941 27.3149L48.8284 5.7146C51.5587 0.373778 59.4413 0.373778 62.1715 5.7146Z" stroke="#FFC700" stroke-width="1.5" stroke-linecap="round" stroke-linejoin="round"/>
</svg>
